<?xml version="1.0" encoding="UTF-8"?>
<svg width="55px" height="55px" viewBox="0 0 55 55" version="1.1" xmlns="http://www.w3.org/2000/svg" xmlns:xlink="http://www.w3.org/1999/xlink">
    <!-- Generator: Sketch 51.1 (57501) - http://www.bohemiancoding.com/sketch -->
    <title>ABRIR</title>
    <desc>Created with Sketch.</desc>
    <defs>
        <path d="M27.5,49 C15.6258779,49 6,39.3741221 6,27.5 C6,15.6258779 15.6258779,6 27.5,6 C39.3741221,6 49,15.6258779 49,27.5 C49,39.3741221 39.3741221,49 27.5,49 Z M14.4435546,30 L16.5529296,30 L14.1945312,22.8320312 L11.621289,22.8320312 L9.29218745,30 L11.4113281,30 L11.7726562,28.6621094 L14.0919921,28.6621094 L14.4435546,30 Z M13.6916015,27.0800781 L12.1730468,27.0800781 C12.4692723,25.9602809 12.6605138,25.2099628 12.7467773,24.8291016 C12.8330407,24.4482403 12.8908201,24.1748055 12.9201171,24.0087891 C12.9526694,24.1878264 13.0202143,24.4840474 13.1227539,24.8974609 C13.2252934,25.3108745 13.3123694,25.6477852 13.3839843,25.9082031 L13.6916015,27.0800781 Z M18.924414,22.8613281 L18.924414,30 L21.7027344,30 C22.5425823,30 23.2058244,29.8136412 23.6924804,29.440918 C24.1791365,29.0681948 24.4224609,28.5579459 24.4224609,27.9101562 C24.4224609,27.4739562 24.3231781,27.119142 24.1246094,26.8457031 C23.9260406,26.5722643 23.6054058,26.3769537 23.1626953,26.2597656 L23.1626953,26.2109375 C23.4979834,26.1295569 23.768163,25.947267 23.9732422,25.6640625 C24.1783213,25.380858 24.2808594,25.0390645 24.2808594,24.6386719 C24.2808594,24.0299449 24.0456729,23.5815444 23.5752929,23.293457 C23.104913,23.0053697 22.3847053,22.8613281 21.4146484,22.8613281 L18.924414,22.8613281 Z M20.853125,25.6005859 L20.853125,24.3212891 L21.3951172,24.3212891 C22.0005889,24.3212891 22.3033203,24.5214824 22.3033203,24.921875 C22.3033203,25.1464855 22.2276375,25.3157546 22.0762695,25.4296875 C21.9249016,25.5436204 21.7108738,25.6005859 21.4341797,25.6005859 L20.853125,25.6005859 Z M20.853125,27.0117188 L21.4927734,27.0117188 C21.7987645,27.0117188 22.0323234,27.0751947 22.193457,27.2021484 C22.3545906,27.3291022 22.4351562,27.511392 22.4351562,27.7490234 C22.4351562,28.2568385 22.1340525,28.5107422 21.5318359,28.5107422 L20.853125,28.5107422 L20.853125,27.0117188 Z M29.1914062,27.4023438 L29.6796875,27.4023438 L31.1933594,30 L33.3808594,30 L31.3007812,26.8896484 C32.108077,26.4371722 32.5117188,25.7975302 32.5117188,24.9707031 C32.5117188,23.5644461 31.5416764,22.8613281 29.6015625,22.8613281 L27.2626953,22.8613281 L27.2626953,30 L29.1914062,30 L29.1914062,27.4023438 Z M29.1914062,25.9521484 L29.1914062,24.3212891 L29.5722656,24.3212891 C30.2330762,24.3212891 30.5634766,24.5670548 30.5634766,25.0585938 C30.5634766,25.6542999 30.2265659,25.9521484 29.5527344,25.9521484 L29.1914062,25.9521484 Z M35.6302735,30 L37.56875,30 L37.56875,22.8613281 L35.6302735,22.8613281 L35.6302735,30 Z M42.6404297,27.4023438 L43.128711,27.4023438 L44.6423829,30 L46.8298829,30 L44.7498047,26.8896484 C45.5571004,26.4371722 45.9607422,25.7975302 45.9607422,24.9707031 C45.9607422,23.5644461 44.9906999,22.8613281 43.050586,22.8613281 L40.7117188,22.8613281 L40.7117188,30 L42.6404297,30 L42.6404297,27.4023438 Z M42.6404297,25.9521484 L42.6404297,24.3212891 L43.0212891,24.3212891 C43.6820997,24.3212891 44.0125,24.5670548 44.0125,25.0585938 C44.0125,25.6542999 43.6755894,25.9521484 43.0017579,25.9521484 L42.6404297,25.9521484 Z" id="path-1"></path>
        <filter x="-12.8%" y="-12.8%" width="130.2%" height="130.2%" filterUnits="objectBoundingBox" id="filter-2">
            <feOffset dx="1" dy="1" in="SourceAlpha" result="shadowOffsetOuter1"></feOffset>
            <feGaussianBlur stdDeviation="2" in="shadowOffsetOuter1" result="shadowBlurOuter1"></feGaussianBlur>
            <feColorMatrix values="0 0 0 0 0   0 0 0 0 0   0 0 0 0 0  0 0 0 0.5 0" type="matrix" in="shadowBlurOuter1"></feColorMatrix>
        </filter>
    </defs>
    <g id="ABRIR" stroke="none" stroke-width="1" fill="none" fill-rule="evenodd">
        <g id="Combined-Shape">
            <use fill="black" fill-opacity="1" filter="url(#filter-2)" xlink:href="#path-1"></use>
            <use fill="#E7CEA0" fill-rule="evenodd" xlink:href="#path-1"></use>
        </g>
    </g>
</svg>