<?xml version="1.0" encoding="UTF-8"?>
<svg width="30px" height="30px" viewBox="0 0 30 30" version="1.1" xmlns="http://www.w3.org/2000/svg" xmlns:xlink="http://www.w3.org/1999/xlink">
    <!-- Generator: Sketch 51.1 (57501) - http://www.bohemiancoding.com/sketch -->
    <title>Borrar</title>
    <desc>Created with Sketch.</desc>
    <defs></defs>
    <g id="Borrar" stroke="none" stroke-width="1" fill="none" fill-rule="evenodd">
        <g id="noun_Delete_1144251" transform="translate(7.000000, 5.000000)" fill="#FF3366" fill-rule="nonzero">
            <g id="Group" transform="translate(0.168224, 0.000000)">
                <g id="Shape">
                    <path d="M13.3183647,5.57829634 L12.8042217,17.9177271 C12.7941653,18.1590803 12.5794546,18.364486 12.3364414,18.364486 L3.36449313,18.364486 C3.12157761,18.364486 2.90674517,18.1585027 2.89671286,17.9177271 L2.38256992,5.57829634 C2.36645408,5.19151646 2.03984257,4.89103388 1.65306269,4.90714971 C1.26628281,4.92326554 0.965800234,5.24987706 0.981916065,5.63665693 L1.49605901,17.9760877 C1.5373832,18.967868 2.37017355,19.7663551 3.36449313,19.7663551 L12.3364414,19.7663551 C13.3301675,19.7663551 14.1634984,18.9691386 14.2048756,17.9760877 L14.7190185,5.63665693 C14.7351343,5.24987706 14.4346518,4.92326554 14.0478719,4.90714971 C13.661092,4.89103388 13.3344805,5.19151646 13.3183647,5.57829634 Z"></path>
                    <path d="M7.28971963,6.72897196 L7.28971963,16.2616822 C7.28971963,16.5713746 7.54077491,16.8224299 7.85046729,16.8224299 C8.16015967,16.8224299 8.41121495,16.5713746 8.41121495,16.2616822 L8.41121495,6.72897196 C8.41121495,6.41927958 8.16015967,6.1682243 7.85046729,6.1682243 C7.54077491,6.1682243 7.28971963,6.41927958 7.28971963,6.72897196 Z"></path>
                    <path d="M4.20584986,6.74545741 L4.48622369,16.2781677 C4.49532836,16.5877262 4.75365589,16.8312922 5.06321442,16.8221875 C5.37277295,16.8130829 5.61633892,16.5547553 5.60723425,16.2451968 L5.32686042,6.71248651 C5.31775576,6.40292798 5.05942822,6.15936202 4.74986969,6.16846668 C4.44031116,6.17757135 4.1967452,6.43589888 4.20584986,6.74545741 Z"></path>
                    <path d="M10.3740742,6.71248651 L10.0937003,16.2451968 C10.0845957,16.5547553 10.3281616,16.8130829 10.6377202,16.8221875 C10.9472787,16.8312922 11.2056062,16.5877262 11.2147109,16.2781677 L11.4950847,6.74545741 C11.5041894,6.43589888 11.2606234,6.17757135 10.9510649,6.16846668 C10.6415064,6.15936202 10.3831788,6.40292798 10.3740742,6.71248651 Z"></path>
                    <path d="M0.841121495,3.92523364 L14.8598131,3.92523364 C15.2469286,3.92523364 15.5607477,3.61141455 15.5607477,3.22429907 C15.5607477,2.83718358 15.2469286,2.52336449 14.8598131,2.52336449 L0.841121495,2.52336449 C0.454006009,2.52336449 0.140186916,2.83718358 0.140186916,3.22429907 C0.140186916,3.61141455 0.454006009,3.92523364 0.841121495,3.92523364 Z"></path>
                    <path d="M5.72069436,2.99629985 L6.01256504,1.9747525 C6.07507808,1.75595683 6.35870122,1.54205607 6.58640094,1.54205607 L9.11453364,1.54205607 C9.34237864,1.54205607 9.62580412,1.75577352 9.68836954,1.9747525 L9.98024021,2.99629985 L11.328171,2.61117679 L11.0363003,1.58962943 C10.80176,0.768738224 9.96819463,0.140186916 9.11453364,0.140186916 L6.58640094,0.140186916 C5.73284122,0.140186916 4.89911013,0.768963925 4.66463425,1.58962943 L4.37276358,2.61117679 L5.72069436,2.99629985 Z"></path>
                </g>
            </g>
        </g>
    </g>
</svg>