<?xml version="1.0" encoding="UTF-8"?>
<svg width="55px" height="55px" viewBox="0 0 55 55" version="1.1" xmlns="http://www.w3.org/2000/svg" xmlns:xlink="http://www.w3.org/1999/xlink">
    <!-- Generator: Sketch 51.1 (57501) - http://www.bohemiancoding.com/sketch -->
    <title>Cerrar Puerta</title>
    <desc>Created with Sketch.</desc>
    <defs>
        <path d="M23.1973062,24.9999989 C22.1598778,23.2065954 20.2208466,22 18,22 C14.6862915,22 12,24.6862915 12,28 C12,31.3137085 14.6862915,34 18,34 C20.6124377,34 22.8349158,32.3303847 23.6585886,30 L43,30 L43,25 L23.1973083,25 Z M27.5,49 C15.6258779,49 6,39.3741221 6,27.5 C6,15.6258779 15.6258779,6 27.5,6 C39.3741221,6 49,15.6258779 49,27.5 C49,39.3741221 39.3741221,49 27.5,49 Z M38,30 L38,34 L43,34 L43,30 L38,30 Z M31,30 L31,34 L35,34 L35,30 L31,30 Z" id="path-1"></path>
        <filter x="-12.8%" y="-12.8%" width="130.2%" height="130.2%" filterUnits="objectBoundingBox" id="filter-2">
            <feOffset dx="1" dy="1" in="SourceAlpha" result="shadowOffsetOuter1"></feOffset>
            <feGaussianBlur stdDeviation="2" in="shadowOffsetOuter1" result="shadowBlurOuter1"></feGaussianBlur>
            <feColorMatrix values="0 0 0 0 0   0 0 0 0 0   0 0 0 0 0  0 0 0 0.5 0" type="matrix" in="shadowBlurOuter1"></feColorMatrix>
        </filter>
    </defs>
    <g id="Cerrar-Puerta" stroke="none" stroke-width="1" fill="none" fill-rule="evenodd">
        <g id="Combined-Shape">
            <use fill="black" fill-opacity="1" filter="url(#filter-2)" xlink:href="#path-1"></use>
            <use fill="#E7CEA0" fill-rule="evenodd" xlink:href="#path-1"></use>
        </g>
    </g>
</svg>