<?xml version="1.0" encoding="UTF-8"?>
<svg width="55px" height="55px" viewBox="0 0 55 55" version="1.1" xmlns="http://www.w3.org/2000/svg" xmlns:xlink="http://www.w3.org/1999/xlink">
    <!-- Generator: Sketch 51.1 (57501) - http://www.bohemiancoding.com/sketch -->
    <title>CERRAR</title>
    <desc>Created with Sketch.</desc>
    <defs>
        <path d="M27.5,49 C15.6258779,49 6,39.3741221 6,27.5 C6,15.6258779 15.6258779,6 27.5,6 C39.3741221,6 49,15.6258779 49,27.5 C49,39.3741221 39.3741221,49 27.5,49 Z M10.5437499,26.4726562 C10.7859386,26.4726562 11.0124989,26.5065101 11.2234374,26.5742188 C11.434376,26.6419274 11.6453114,26.7252599 11.8562499,26.8242188 L12.3289062,25.609375 C11.7664034,25.3411445 11.1765655,25.2070312 10.5593749,25.2070312 C9.99426794,25.2070312 9.50273639,25.3274728 9.08476555,25.5683594 C8.66679471,25.809246 8.34648542,26.1536436 8.12382805,26.6015625 C7.90117069,27.0494814 7.78984368,27.5690075 7.78984368,28.1601562 C7.78984368,29.1054735 8.01965909,29.8281225 8.4792968,30.328125 C8.93893452,30.8281275 9.5997352,31.078125 10.4617187,31.078125 C11.0632842,31.078125 11.6023413,30.9726573 12.0789062,30.7617188 L12.0789062,29.4570312 C11.8393216,29.5559901 11.6010428,29.6406246 11.3640624,29.7109375 C11.1270821,29.7812504 10.8822929,29.8164062 10.6296874,29.8164062 C9.79374575,29.8164062 9.37578118,29.2669326 9.37578118,28.1679688 C9.37578118,27.6393203 9.47864473,27.2246109 9.68437493,26.9238281 C9.89010512,26.6230454 10.1765606,26.4726562 10.5437499,26.4726562 Z M18.1828125,31 L18.1828125,29.7421875 L16.3351562,29.7421875 L16.3351562,28.6640625 L18.0460937,28.6640625 L18.0460937,27.4257812 L16.3351562,27.4257812 L16.3351562,26.5273438 L18.1828125,26.5273438 L18.1828125,25.2890625 L14.7921875,25.2890625 L14.7921875,31 L18.1828125,31 Z M22.3257812,28.921875 L22.7164062,28.921875 L23.9273437,31 L25.6773437,31 L24.0132812,28.5117188 C24.6591178,28.1497378 24.9820312,27.6380241 24.9820312,26.9765625 C24.9820312,25.8515569 24.2059973,25.2890625 22.6539062,25.2890625 L20.7828125,25.2890625 L20.7828125,31 L22.3257812,31 L22.3257812,28.921875 Z M22.3257812,27.7617188 L22.3257812,26.4570312 L22.6304687,26.4570312 C23.1591172,26.4570312 23.4234375,26.6536439 23.4234375,27.046875 C23.4234375,27.5234399 23.1539089,27.7617188 22.6148437,27.7617188 L22.3257812,27.7617188 Z M29.3398438,28.921875 L29.7304688,28.921875 L30.9414062,31 L32.6914062,31 L31.0273438,28.5117188 C31.6731803,28.1497378 31.9960938,27.6380241 31.9960938,26.9765625 C31.9960938,25.8515569 31.2200598,25.2890625 29.6679688,25.2890625 L27.796875,25.2890625 L27.796875,31 L29.3398438,31 L29.3398438,28.921875 Z M29.3398438,27.7617188 L29.3398438,26.4570312 L29.6445312,26.4570312 C30.1731797,26.4570312 30.4375,26.6536439 30.4375,27.046875 C30.4375,27.5234399 30.1679714,27.7617188 29.6289062,27.7617188 L29.3398438,27.7617188 Z M38.3148438,31 L40.0023438,31 L38.115625,25.265625 L36.0570313,25.265625 L34.19375,31 L35.8890625,31 L36.178125,29.9296875 L38.0335938,29.9296875 L38.3148438,31 Z M37.7132813,28.6640625 L36.4984375,28.6640625 C36.7354179,27.7682247 36.8884111,27.1679703 36.9574219,26.8632812 C37.0264327,26.5585922 37.0726562,26.3398444 37.0960938,26.2070312 C37.1221356,26.3502611 37.1761715,26.5872379 37.2582031,26.9179688 C37.3402348,27.2486996 37.4098956,27.5182281 37.4671875,27.7265625 L37.7132813,28.6640625 Z M43.7625,28.921875 L44.153125,28.921875 L45.3640625,31 L47.1140625,31 L45.45,28.5117188 C46.0958366,28.1497378 46.41875,27.6380241 46.41875,26.9765625 C46.41875,25.8515569 45.6427161,25.2890625 44.090625,25.2890625 L42.2195313,25.2890625 L42.2195313,31 L43.7625,31 L43.7625,28.921875 Z M43.7625,27.7617188 L43.7625,26.4570312 L44.0671875,26.4570312 C44.595836,26.4570312 44.8601563,26.6536439 44.8601563,27.046875 C44.8601563,27.5234399 44.5906277,27.7617188 44.0515625,27.7617188 L43.7625,27.7617188 Z" id="path-1"></path>
        <filter x="-12.8%" y="-12.8%" width="130.2%" height="130.2%" filterUnits="objectBoundingBox" id="filter-2">
            <feOffset dx="1" dy="1" in="SourceAlpha" result="shadowOffsetOuter1"></feOffset>
            <feGaussianBlur stdDeviation="2" in="shadowOffsetOuter1" result="shadowBlurOuter1"></feGaussianBlur>
            <feColorMatrix values="0 0 0 0 0   0 0 0 0 0   0 0 0 0 0  0 0 0 0.5 0" type="matrix" in="shadowBlurOuter1"></feColorMatrix>
        </filter>
    </defs>
    <g id="CERRAR" stroke="none" stroke-width="1" fill="none" fill-rule="evenodd">
        <g id="Combined-Shape">
            <use fill="black" fill-opacity="1" filter="url(#filter-2)" xlink:href="#path-1"></use>
            <use fill="#E7CEA0" fill-rule="evenodd" xlink:href="#path-1"></use>
        </g>
    </g>
</svg>