<?xml version="1.0" encoding="UTF-8"?>
<svg width="32px" height="32px" viewBox="0 0 32 32" version="1.1" xmlns="http://www.w3.org/2000/svg" xmlns:xlink="http://www.w3.org/1999/xlink">
    <!-- Generator: Sketch 51.1 (57501) - http://www.bohemiancoding.com/sketch -->
    <title>Cerrar Sesion</title>
    <desc>Created with Sketch.</desc>
    <defs></defs>
    <g id="Cerrar-Sesion" stroke="none" stroke-width="1" fill="none" fill-rule="evenodd">
        <g id="Group" transform="translate(6.000000, 5.000000)" fill-rule="nonzero">
            <g>
                <g>
                    <g>
                        <rect id="Rectangle-path" fill="#002857" x="0" y="0" width="1.96923077" height="21.6615385" rx="0.984615385"></rect>
                        <path d="M0.987050629,1.96923077 C0.441917619,1.96923077 0,1.53219464 0,0.984615385 C0,0.440827323 0.441612911,0 0.987050629,0 L10.828334,8.74514137e-16 C11.373467,8.74514137e-16 11.8153846,0.437036133 11.8153846,0.984615385 C11.8153846,1.52840345 11.3737717,1.96923077 10.828334,1.96923077 L0.987050629,1.96923077 Z" id="Shape" fill="#002857"></path>
                        <rect id="Rectangle-path" fill="#002857" transform="translate(5.907692, 20.676923) rotate(-90.000000) translate(-5.907692, -20.676923) " x="4.92307692" y="14.7692308" width="1.96923077" height="11.8153846" rx="0.984615385"></rect>
                        <path d="M5.41207995,11.8153846 C4.87011702,11.8153846 4.43076923,11.3783485 4.43076923,10.8307692 C4.43076923,10.2869812 4.8737047,9.84615385 5.41207995,9.84615385 L17.7263816,9.84615385 C18.2683445,9.84615385 18.7076923,10.28319 18.7076923,10.8307692 C18.7076923,11.3745573 18.2647568,11.8153846 17.7263816,11.8153846 L5.41207995,11.8153846 Z" id="Shape" fill="#FF3366"></path>
                        <path d="M17.7230769,15.2615385 L10.8307692,15.2615385 C10.2869812,15.2615385 9.84615385,14.8207111 9.84615385,14.2769231 C9.84615385,13.733135 10.2869812,13.2923077 10.8307692,13.2923077 L16.7384615,13.2923077 L16.7384615,7.38461538 C16.7384615,6.84082732 17.1792889,6.4 17.7230769,6.4 C18.266865,6.4 18.7076923,6.84082732 18.7076923,7.38461538 L18.7076923,14.2769231 C18.7076923,14.8207111 18.266865,15.2615385 17.7230769,15.2615385 Z" id="Shape" fill="#FF3366" transform="translate(14.276923, 10.830769) rotate(-45.000000) translate(-14.276923, -10.830769) "></path>
                    </g>
                </g>
            </g>
        </g>
    </g>
</svg>