<?xml version="1.0" encoding="UTF-8"?>
<svg width="30px" height="30px" viewBox="0 0 30 30" version="1.1" xmlns="http://www.w3.org/2000/svg" xmlns:xlink="http://www.w3.org/1999/xlink">
    <!-- Generator: Sketch 51.1 (57501) - http://www.bohemiancoding.com/sketch -->
    <title>configurar</title>
    <desc>Created with Sketch.</desc>
    <defs></defs>
    <g id="configurar" stroke="none" stroke-width="1" fill="none" fill-rule="evenodd">
        <g id="noun_configure_1554641" transform="translate(4.000000, 3.000000)" fill="#002857" fill-rule="nonzero">
            <g id="Group">
                <path d="M10.0900424,0.0931245763 C9.78581707,0.123938782 9.52939605,0.333443515 9.43855932,0.625408475 L8.55667373,3.42189153 C8.27816822,3.52031186 8.0042822,3.63748983 7.73834746,3.76350763 L5.14036017,2.41293305 C4.84596039,2.25953495 4.48614842,2.31414722 4.25052966,2.54799153 L2.45497881,4.34346102 C2.22112421,4.57906927 2.1665099,4.93886475 2.31991525,5.23325085 L3.67055085,7.83111864 C3.54452771,8.09704068 3.42734593,8.37091271 3.32891949,8.64940678 L0.532309322,9.53125169 C0.214022585,9.63212938 -0.00166098072,9.9282785 -6.11506966e-17,10.2621508 L-6.11506966e-17,12.8044068 C-0.00166432829,13.1382819 0.214019885,13.434435 0.532309322,13.5353136 L3.32891949,14.417161 C3.42734542,14.6956525 3.5445272,14.9695169 3.67055085,15.2354492 L2.31991525,17.833322 C2.16651492,18.1277056 2.22112897,18.4874952 2.45497881,18.7231017 L4.25052966,20.5185763 C4.48615023,20.752418 4.845962,20.8070272 5.14036017,20.6536271 L7.73834746,19.3030424 C8.00428195,19.4290678 8.27816822,19.5462458 8.55667373,19.644661 L9.43855932,22.4411441 C9.53943746,22.7594207 9.83560091,22.9750998 10.1694915,22.9734407 L12.7118644,22.9734407 C13.045755,22.9750998 13.3419185,22.7594207 13.4427966,22.4411441 L14.3246822,19.644661 C14.6031877,19.5462458 14.877074,19.4290678 15.1430085,19.3030424 L17.7409958,20.6536271 C18.0353939,20.8070272 18.3952057,20.752418 18.6308263,20.5185763 L20.4263771,18.7231017 C20.660227,18.4874952 20.714841,18.1277056 20.5614407,17.833322 L19.2108051,15.2354492 C19.3368287,14.9695169 19.4540105,14.6956525 19.5524364,14.417161 L22.3490466,13.5353136 C22.667336,13.434435 22.8830203,13.1382819 22.8813559,12.8044068 L22.8813559,10.2621508 C22.8830169,9.9282785 22.6673333,9.63212938 22.3490466,9.53125169 L19.5524364,8.64940678 C19.45401,8.37091271 19.3368282,8.09704068 19.2108051,7.83111864 L20.5614407,5.23325085 C20.714846,4.93886475 20.6602317,4.57906927 20.4263771,4.34346102 L18.6308263,2.54799153 C18.3952075,2.31414722 18.0353955,2.25953495 17.7409958,2.41293305 L15.1430085,3.76350763 C14.8770737,3.63748983 14.6031877,3.52031186 14.3246822,3.42189153 L13.4427966,0.625408475 C13.341914,0.307136828 13.0457516,0.0914636608 12.7118644,0.0931245763 L10.1694915,0.0931245763 C10.1430265,0.0917445152 10.1165074,0.0917445152 10.0900424,0.0931245763 Z M10.7335805,1.61847712 L12.1477754,1.61847712 L12.9661017,4.21634746 C13.0438521,4.45895165 13.2375952,4.64672484 13.4825212,4.71685424 C13.9540467,4.85756441 14.3975659,5.03826102 14.8172669,5.26502797 C15.0395343,5.38614424 15.3074096,5.38911587 15.5323093,5.27296017 L17.9396186,4.01771949 L18.9565678,5.03462288 L17.7012712,7.44182288 C17.5851142,7.66671426 17.5880906,7.93457718 17.7092161,8.1568322 C17.9359942,8.57651949 18.1166987,9.02001356 18.2574153,9.49151695 C18.3275477,9.73643198 18.5153295,9.93016654 18.7579449,10.0079136 L21.3559322,10.8262144 L21.3559322,12.2403559 L18.7579449,13.0586441 C18.5153331,13.1363881 18.3275521,13.3301162 18.2574153,13.5750254 C18.116698,14.0465339 17.9359912,14.4900508 17.7092161,14.9097203 C17.5880968,15.1319707 17.5851205,15.3998253 17.7012712,15.6247119 L18.9565678,18.0319322 L17.9396186,19.0488305 L15.5323093,17.7935847 C15.307418,17.6774133 15.0395428,17.6803658 14.8172669,17.8014661 C14.3975654,18.0282203 13.9540462,18.2089068 13.4825212,18.3496271 C13.2375749,18.4197734 13.0438277,18.6075829 12.9661017,18.8502203 L12.1477754,21.4480932 L10.7335805,21.4480932 L9.91525424,18.8502203 C9.83750667,18.6076122 9.64376308,18.4198348 9.39883475,18.3497034 C8.92730975,18.2089831 8.48379051,18.0282966 8.06408898,17.8015424 C7.84181318,17.6804421 7.57393791,17.6774895 7.34904661,17.793661 L4.94173729,19.0489068 L3.92478814,18.0320085 L5.18008475,15.6247881 C5.29623546,15.3999015 5.29325909,15.1320469 5.17213983,14.9097966 C4.94536475,14.4901271 4.76465797,14.0466102 4.62394068,13.5751017 C4.55380388,13.3301925 4.36602279,13.1364644 4.12341102,13.0587203 L1.52542373,12.2403559 L1.52542373,10.8262144 L4.12341102,10.0079263 C4.36602646,9.93017925 4.55380828,9.7364447 4.62394068,9.49152966 C4.7646572,9.02002627 4.94536169,8.5765322 5.17213983,8.15684492 C5.29326538,7.93458989 5.29624177,7.66672697 5.18008475,7.44183559 L3.92478814,5.03463559 L4.94173729,4.0177322 L7.34904661,5.27297288 C7.57394633,5.38912858 7.84182165,5.38615695 8.06408898,5.26504068 C8.48379,5.03827373 8.92730924,4.85757712 9.39883475,4.71686695 C9.64376368,4.64673508 9.83750739,4.45895653 9.91525424,4.21634746 L10.7335805,1.61847712 Z M11.440678,7.21144322 C9.06271831,7.21144322 7.11864407,9.1554178 7.11864407,11.5332712 C7.11864407,13.9111017 9.06271297,15.8551271 11.440678,15.8551271 C13.818643,15.8551271 15.7627119,13.9111017 15.7627119,11.5332712 C15.7627119,9.1554178 13.8186376,7.21144322 11.440678,7.21144322 Z M11.440678,8.73679831 C12.9942366,8.73679831 14.2372881,9.97977458 14.2372881,11.5332712 C14.2372881,13.0867627 12.9942313,14.3297542 11.440678,14.3297542 C9.88712466,14.3297542 8.6440678,13.0867627 8.6440678,11.5332712 C8.6440678,9.97977458 9.88711932,8.73679831 11.440678,8.73679831 Z" id="Shape"></path>
            </g>
        </g>
    </g>
</svg>