<?xml version="1.0" encoding="UTF-8"?>
<svg width="32px" height="32px" viewBox="0 0 32 32" version="1.1" xmlns="http://www.w3.org/2000/svg" xmlns:xlink="http://www.w3.org/1999/xlink">
    <!-- Generator: Sketch 51.1 (57501) - http://www.bohemiancoding.com/sketch -->
    <title>Copiar Perfil</title>
    <desc>Created with Sketch.</desc>
    <defs></defs>
    <g id="Copiar-Perfil" stroke="none" stroke-width="1" fill="none" fill-rule="evenodd">
        <g id="Group" transform="translate(6.000000, 2.000000)" fill="#002857" fill-rule="nonzero">
            <path d="M17.5636364,27.6340909 L6.58636364,27.6340909 C4.91590909,27.6340909 3.57954545,26.1545455 3.57954545,24.3409091 L3.57954545,6.77727273 C3.57954545,4.96363636 4.91590909,3.48409091 6.58636364,3.48409091 L17.6113636,3.48409091 C19.2818182,3.48409091 20.6181818,4.96363636 20.6181818,6.77727273 L20.6181818,24.3409091 C20.5704545,26.1545455 19.2340909,27.6340909 17.5636364,27.6340909 Z M6.58636364,5.05909091 C5.72727273,5.05909091 5.01136364,5.82272727 5.01136364,6.77727273 L5.01136364,24.3409091 C5.01136364,25.2954545 5.72727273,26.0590909 6.58636364,26.0590909 L17.6113636,26.0590909 C18.4704545,26.0590909 19.1863636,25.2954545 19.1863636,24.3409091 L19.1863636,6.77727273 C19.1863636,5.82272727 18.4704545,5.05909091 17.6113636,5.05909091 L6.58636364,5.05909091 Z" id="Shape"></path>
            <path d="M1.86136364,20.9045455 L0.429545455,20.9045455 L0.429545455,3.34090909 C0.429545455,1.52727273 1.76590909,0.0477272727 3.43636364,0.0477272727 L14.4613636,0.0477272727 L14.4613636,1.62272727 L3.43636364,1.62272727 C2.57727273,1.62272727 1.86136364,2.38636364 1.86136364,3.34090909 L1.86136364,20.9045455 Z" id="Shape"></path>
        </g>
    </g>
</svg>