<?xml version="1.0" encoding="UTF-8"?>
<svg width="30px" height="30px" viewBox="0 0 30 30" version="1.1" xmlns="http://www.w3.org/2000/svg" xmlns:xlink="http://www.w3.org/1999/xlink">
    <!-- Generator: Sketch 51.1 (57501) - http://www.bohemiancoding.com/sketch -->
    <title>Editar</title>
    <desc>Created with Sketch.</desc>
    <defs></defs>
    <g id="Editar" stroke="none" stroke-width="1" fill="none" fill-rule="evenodd">
        <g id="noun_edit_1962674" transform="translate(5.000000, 5.000000)" fill="#002857" fill-rule="nonzero">
            <path d="M2.43924192,15.8617614 L2.4548495,15.877369 C2.60423634,16.0200669 2.81605351,16.0936455 3.03455964,16.0557414 L8.1516165,15.1527313 C8.29208473,15.1282051 8.41471572,15.0590858 8.5083612,14.9654404 L8.51059086,14.96767 L17.703456,5.76811594 C18.4860647,4.98550725 18.4860647,3.71237458 17.703456,2.92976589 L15.3712375,0.595317726 C14.9921962,0.216276477 14.4882943,0.00891861761 13.9531773,0.00891861761 C13.4180602,0.00891861761 12.9119287,0.216276477 12.5351171,0.595317726 L3.3400223,9.79487179 L3.34225195,9.79710145 C3.24860647,9.89074693 3.17948718,10.0133779 3.15496098,10.1538462 L2.25195095,15.2753623 C2.21627648,15.4960981 2.29208473,15.7123746 2.43924192,15.8617614 Z M10.8606466,4.16053512 L14.1404682,7.4425864 L7.71906355,13.87068 L3.73690078,14.5730212 L4.43924192,10.5886288 L10.8606466,4.16053512 Z M13.4782609,1.54069119 C13.6031215,1.41583055 13.7703456,1.34671126 13.9509476,1.34671126 C14.1315496,1.34671126 14.2987737,1.41583055 14.4236343,1.54069119 L16.7580825,3.87513935 C17.0189521,4.13600892 17.0189521,4.56187291 16.7580825,4.82274247 L15.0880713,6.49498328 L11.8082497,3.212932 L13.4782609,1.54069119 Z M19.3088071,18.6488294 L0.668896321,18.6488294 C0.301003344,18.6488294 0,18.9498328 0,19.3177258 C0,19.6856187 0.301003344,19.9866221 0.668896321,19.9866221 L19.3088071,19.9866221 C19.6767001,19.9866221 19.9777035,19.6856187 19.9777035,19.3177258 C19.9777035,18.9498328 19.6767001,18.6488294 19.3088071,18.6488294 Z" id="Shape"></path>
        </g>
    </g>
</svg>