<?xml version="1.0" encoding="UTF-8"?>
<svg width="32px" height="32px" viewBox="0 0 32 32" version="1.1" xmlns="http://www.w3.org/2000/svg" xmlns:xlink="http://www.w3.org/1999/xlink">
    <!-- Generator: Sketch 51.1 (57501) - http://www.bohemiancoding.com/sketch -->
    <title>Info</title>
    <desc>Created with Sketch.</desc>
    <defs></defs>
    <g id="Info" stroke="none" stroke-width="1" fill="none" fill-rule="evenodd">
        <circle id="Oval-4" stroke="#F0F0F0" stroke-width="3" fill-rule="nonzero" cx="16.5" cy="16.5" r="13.5"></circle>
        <path d="M13,10.65 C13.7111147,10.2166645 14.5388842,10 15.4833333,10 C16.1722257,10 16.7833307,10.1166655 17.3166667,10.35 C17.8500027,10.5833345 18.2638874,10.9055535 18.5583333,11.3166667 C18.8527793,11.7277798 19,12.2055528 19,12.75 C19,13.3388918 18.8638903,13.8444423 18.5916667,14.2666667 C18.3194431,14.688891 17.9111138,15.177775 17.3666667,15.7333333 C16.9111088,16.2000023 16.5666678,16.5972206 16.3333333,16.925 C16.0999988,17.2527794 15.9555558,17.6222202 15.9,18.0333333 L15.8333333,18.5 L14.6,18.5 L14.6,17.8166667 C14.6,17.1944413 14.71111,16.6694466 14.9333333,16.2416667 C15.1555567,15.8138867 15.4777757,15.3500025 15.9,14.85 C16.2222238,14.4722203 16.4638881,14.1444458 16.625,13.8666667 C16.7861119,13.5888875 16.8666667,13.2777795 16.8666667,12.9333333 C16.8666667,12.5444425 16.7305569,12.2416678 16.4583333,12.025 C16.1861097,11.8083322 15.8111135,11.7 15.3333333,11.7 C14.5555517,11.7 13.7777817,11.9388865 13,12.4166667 L13,10.65 Z M14.0666667,22 L14.0666667,19.6666667 L16.4166667,19.6666667 L16.4166667,22 L14.0666667,22 Z" id="?" fill="#F0F0F0"></path>
    </g>
</svg>