<?xml version="1.0" encoding="UTF-8"?>
<svg width="32px" height="32px" viewBox="0 0 32 32" version="1.1" xmlns="http://www.w3.org/2000/svg" xmlns:xlink="http://www.w3.org/1999/xlink">
    <!-- Generator: Sketch 51.1 (57501) - http://www.bohemiancoding.com/sketch -->
    <title>inicio</title>
    <desc>Created with Sketch.</desc>
    <defs></defs>
    <g id="inicio" stroke="none" stroke-width="1" fill="none" fill-rule="evenodd">
        <g id="Group" transform="translate(3.000000, 3.000000)" fill="#002857" fill-rule="nonzero">
            <path d="M26.6666667,12.6333333 L21.0666667,7.03333333 L21.0666667,2.9 C21.0666667,2.83333333 21.0666667,2.76666667 21.0333333,2.7 C21.2666667,2.66666667 21.4333333,2.46666667 21.4333333,2.2 C21.4333333,1.93333333 21.2,1.7 20.9333333,1.7 L18.8,1.7 C18.5333333,1.7 18.3,1.93333333 18.3,2.2 C18.3,2.43333333 18.4666667,2.66666667 18.7,2.7 C18.6666667,2.76666667 18.6666667,2.83333333 18.6666667,2.9 L18.6666667,4.66666667 L14.5333333,0.533333333 C14.5,0.5 14.5,0.5 14.4666667,0.466666667 C14.2333333,0.233333333 13.9333333,0.133333333 13.6333333,0.133333333 C13.3333333,0.133333333 13.0333333,0.233333333 12.8,0.466666667 C12.7666667,0.5 12.7666667,0.5 12.7333333,0.533333333 L0.666666667,12.6333333 C0.2,13.1 0.2,13.8333333 0.666666667,14.3 C1.13333333,14.7666667 1.86666667,14.7666667 2.33333333,14.3 L13.6666667,2.96666667 L25,14.3 C25.4666667,14.7666667 26.2,14.7666667 26.6666667,14.3 C27.1,13.8333333 27.1,13.1 26.6666667,12.6333333 Z" id="Shape"></path>
            <path d="M3.9,13.8333333 L3.9,25.7666667 C3.9,26.2 4.33333333,26.5333333 4.86666667,26.5333333 L9.93333333,26.5333333 C10.3666667,26.5333333 10.7333333,26.1666667 10.7333333,25.7333333 L10.7333333,17.7 C10.7333333,17.2666667 11.1,16.9333333 11.5333333,16.9333333 L15.8333333,16.9333333 C16.2666667,16.9333333 16.6333333,17.2666667 16.6333333,17.7 L16.6333333,25.7333333 C16.6333333,26.1666667 16.9666667,26.5333333 17.4,26.5333333 L22.4666667,26.5333333 C23,26.5333333 23.4666667,26.1666667 23.4666667,25.7666667 L23.4666667,13.8333333 L13.6666667,4.06666667 L3.9,13.8333333 Z" id="Shape"></path>
        </g>
    </g>
</svg>