<?xml version="1.0" encoding="UTF-8"?>
<svg width="32px" height="32px" viewBox="0 0 32 32" version="1.1" xmlns="http://www.w3.org/2000/svg" xmlns:xlink="http://www.w3.org/1999/xlink">
    <!-- Generator: Sketch 51.1 (57501) - http://www.bohemiancoding.com/sketch -->
    <title>Menu</title>
    <desc>Created with Sketch.</desc>
    <defs></defs>
    <g id="Menu" stroke="none" stroke-width="1" fill="none" fill-rule="evenodd">
        <g transform="translate(5.000000, 8.000000)" fill="#F0F0F0" fill-rule="nonzero">
            <g id="Group">
                <g id="Shape">
                    <g>
                        <g>
                            <path d="M1.89184704,3.77435897 C0.84700877,3.77435897 0,2.93670639 0,1.88717949 C0,0.844919036 0.846424747,0 1.89184704,0 L20.7543068,1.6761521e-15 C21.799145,1.6761521e-15 22.6461538,0.837652588 22.6461538,1.88717949 C22.6461538,2.92943994 21.7997291,3.77435897 20.7543068,3.77435897 L1.89184704,3.77435897 Z"></path>
                        </g>
                    </g>
                </g>
            </g>
            <g id="Group" transform="translate(0.000000, 6.000000)">
                <g id="Shape">
                    <g>
                        <g>
                            <path d="M1.89184704,3.77435897 C0.84700877,3.77435897 0,2.93670639 0,1.88717949 C0,0.844919036 0.846424747,0 1.89184704,0 L20.7543068,1.6761521e-15 C21.799145,1.6761521e-15 22.6461538,0.837652588 22.6461538,1.88717949 C22.6461538,2.92943994 21.7997291,3.77435897 20.7543068,3.77435897 L1.89184704,3.77435897 Z"></path>
                        </g>
                    </g>
                </g>
            </g>
            <path d="M1.89184704,15.774359 C0.84700877,15.774359 0,14.9367064 0,13.8871795 C0,12.844919 0.846424747,12 1.89184704,12 L20.7543068,12 C21.799145,12 22.6461538,12.8376526 22.6461538,13.8871795 C22.6461538,14.9294399 21.7997291,15.774359 20.7543068,15.774359 L1.89184704,15.774359 Z" id="Shape"></path>
        </g>
    </g>
</svg>