<?xml version="1.0" encoding="UTF-8"?>
<svg width="32px" height="32px" viewBox="0 0 32 32" version="1.1" xmlns="http://www.w3.org/2000/svg" xmlns:xlink="http://www.w3.org/1999/xlink">
    <!-- Generator: Sketch 51.1 (57501) - http://www.bohemiancoding.com/sketch -->
    <title>Notificacion</title>
    <desc>Created with Sketch.</desc>
    <defs></defs>
    <g id="Notificacion" stroke="none" stroke-width="1" fill="none" fill-rule="evenodd">
        <g id="Group" transform="translate(4.000000, 2.000000)" fill="#002857" fill-rule="nonzero">
            <g id="Shape">
                <path d="M9.29508197,0 C10.7720429,0 11.9784615,1.16298757 12.0461821,2.62175037 C14.6195314,3.71000294 16.352459,6.24877635 16.352459,9.12266601 L16.352459,12.7443036 C17.5060236,12.8327076 18.4180328,13.7983774 18.4180328,14.9753903 L18.4180328,16.3533043 C18.4180328,17.0193714 17.8772146,17.557377 17.2122375,17.557377 L1.37792643,17.557377 C0.71139779,17.557377 0.172131148,17.0191979 0.172131148,16.3533043 L0.172131148,14.9753903 C0.172131148,13.7998048 1.08294835,12.8327464 2.23770492,12.7442996 L2.23770492,9.12266601 C2.23770492,6.25013643 3.97104681,3.71088129 6.54396437,2.62215763 C6.61152763,1.16288233 7.81912502,0 9.29508197,0 Z M16.6967213,15.8360656 L16.6967213,14.9753903 C16.6967213,14.6915848 16.4636908,14.4590164 16.1796094,14.4590164 C15.3243732,14.4590164 14.6311475,13.7657566 14.6311475,12.910451 L14.6311475,9.12266601 C14.6311475,6.78607144 13.1159231,4.7421453 10.9258802,4.04033748 L10.3278689,3.8487024 L10.3278689,2.75118645 C10.3278689,2.18345658 9.86523114,1.72131148 9.29508197,1.72131148 C8.72563702,1.72131148 8.26229508,2.183582 8.26229508,2.75118645 L8.26229508,3.84881528 L7.66446691,4.04053898 C5.47480834,4.74276328 3.95901639,6.78748508 3.95901639,9.12266601 L3.95901639,12.910451 C3.95901639,13.7654747 3.26467656,14.4590164 2.41055451,14.4590164 C2.12619895,14.4590164 1.89344262,14.6920023 1.89344262,14.9753903 L1.89344262,15.8360656 L16.6967213,15.8360656 Z M6.02459016,17.557377 L7.74590164,17.557377 C7.74590164,18.4129657 8.43949329,19.1065574 9.29508197,19.1065574 C10.1506706,19.1065574 10.8442623,18.4129657 10.8442623,17.557377 L12.5655738,17.557377 C12.5655738,19.3636198 11.1013247,20.8278689 9.29508197,20.8278689 C7.48883923,20.8278689 6.02459016,19.3636198 6.02459016,17.557377 Z"></path>
            </g>
        </g>
        <g id="plus" transform="translate(23.000000, 21.000000)" stroke="#FF3366" stroke-linecap="round" stroke-width="3">
            <path d="M0.5,3.25 L6.5,3.25" id="line"></path>
            <path d="M3.5,0.5 L3.5,6.5" id="line"></path>
        </g>
    </g>
</svg>