<?xml version="1.0" encoding="UTF-8"?>
<svg width="32px" height="32px" viewBox="0 0 32 32" version="1.1" xmlns="http://www.w3.org/2000/svg" xmlns:xlink="http://www.w3.org/1999/xlink">
    <!-- Generator: Sketch 51.1 (57501) - http://www.bohemiancoding.com/sketch -->
    <title>Nuevo Cliente</title>
    <desc>Created with Sketch.</desc>
    <defs></defs>
    <g id="Nuevo-Cliente" stroke="none" stroke-width="1" fill="none" fill-rule="evenodd">
        <path d="M23.5,24.25 L29.5,24.25" id="line" stroke="#FF3366" stroke-width="3" stroke-linecap="round"></path>
        <path d="M26.5,21.5 L26.5,27.5" id="line" stroke="#FF3366" stroke-width="3" stroke-linecap="round"></path>
        <path d="M2.03023945,12.429459 C2.03023945,11.0376042 3.15854899,9.90908471 4.55061375,9.90908471 C5.64175396,9.90908471 6.57077711,10.6024921 6.92147075,11.5724645 L6.92147075,11.5726745 C7.67493709,12.6258054 8.78539695,13.4059413 10.0760335,13.7366853 L10.106693,13.7444552 C10.0947232,13.753485 10.0829634,13.7625148 10.0714136,13.7717547 C9.54243322,14.1875471 9.20202939,14.8330754 9.20202939,15.5565123 C9.20202939,16.0640731 9.36960636,16.5334146 9.65226123,16.9118277 L9.63924147,16.9044778 C9.63525154,16.9032179 9.63126161,16.9017479 9.62748168,16.9002779 C9.61047199,16.894398 9.5932523,16.8883081 9.57624261,16.8822183 C8.56490095,16.5185048 7.68900683,15.8712966 7.04410853,15.0365617 L7.04809845,21.8996573 L2,21.8996573 L2.03107944,12.4481487 L2.03023945,12.429459 Z M15.5425044,5.52037429 C15.5425044,6.91222905 16.670814,8.04074859 18.0628787,8.04074859 C19.4549435,8.04074859 20.583253,6.91243905 20.583253,5.52037429 C20.583253,4.12830954 19.4547335,3 18.0628787,3 C16.6710239,3 15.5425044,4.12830954 15.5425044,5.52037429 Z M4.55061375,3 C5.9424685,3 7.07098804,4.12830954 7.07098804,5.52037429 C7.07098804,6.91243905 5.9426785,8.04074859 4.55061375,8.04074859 C3.15854899,8.04074859 2.03023945,6.91222905 2.03023945,5.52037429 C2.03023945,4.12851953 3.15854899,3 4.55061375,3 Z M11.5249173,13.8257237 C10.7342816,13.9353417 10.1255026,14.6140494 10.1255026,15.4349245 C10.1255026,16.3322382 10.8529295,17.059455 11.7500332,17.059455 C11.9062704,17.059455 12.0574676,17.0374054 12.200475,16.9962462 L12.2754437,16.9657967 C13.3953533,16.6249729 14.3661657,15.9418553 15.0658731,15.0382417 L15.0658731,15.0712111 L15.0658731,21.8960873 L20.1139715,21.8960873 L20.1064116,12.429459 C20.1064116,11.0376042 18.9781021,9.90908471 17.5860374,9.90908471 C16.5221966,9.90908471 15.6124931,10.5680528 15.2424799,11.5000159 L15.2290401,11.5168156 C14.3936752,12.7127439 13.1019887,13.5665884 11.6066058,13.8253037 L11.5249173,13.8257237 Z" id="Shape" fill="#002857" fill-rule="nonzero"></path>
    </g>
</svg>