<?xml version="1.0" encoding="UTF-8"?>
<svg width="32px" height="32px" viewBox="0 0 32 32" version="1.1" xmlns="http://www.w3.org/2000/svg" xmlns:xlink="http://www.w3.org/1999/xlink">
    <!-- Generator: Sketch 51.1 (57501) - http://www.bohemiancoding.com/sketch -->
    <title>Nueva Ubicación</title>
    <desc>Created with Sketch.</desc>
    <defs></defs>
    <g id="Nueva-Ubicación" stroke="none" stroke-width="1" fill="none" fill-rule="evenodd">
        <path d="M15.665,2 C11.439801,2 8,5.43980101 8,9.665 C8,13.7684082 15.0392041,22.475 15.3416174,22.8446021 C15.4214184,22.9412195 15.5390051,23 15.665,23 C15.7910205,23 15.9128113,22.9412195 15.9926123,22.8446021 C16.2907959,22.475 23.33,13.7684082 23.33,9.665 C23.33,5.43980101 19.8944031,2 15.665,2 Z M15.665,12.92 C13.8716174,12.92 12.41,11.4584082 12.41,9.665 C12.41,7.87161743 13.8716174,6.41 15.665,6.41 C17.4584082,6.41 18.92,7.87161743 18.92,9.665 C18.92,11.4584082 17.4584082,12.92 15.665,12.92 Z" id="Shape" fill="#002857" fill-rule="nonzero"></path>
        <g id="plus" transform="translate(23.000000, 21.000000)" stroke="#FF3366" stroke-linecap="round" stroke-width="3">
            <path d="M0.5,3.25 L6.5,3.25" id="line"></path>
            <path d="M3.5,0.5 L3.5,6.5" id="line"></path>
        </g>
    </g>
</svg>