<?xml version="1.0" encoding="UTF-8"?>
<svg width="32px" height="32px" viewBox="0 0 32 32" version="1.1" xmlns="http://www.w3.org/2000/svg" xmlns:xlink="http://www.w3.org/1999/xlink">
    <!-- Generator: Sketch 51.1 (57501) - http://www.bohemiancoding.com/sketch -->
    <title>Nueva OC</title>
    <desc>Created with Sketch.</desc>
    <defs></defs>
    <g id="Nueva-OC" stroke="none" stroke-width="1" fill="none" fill-rule="evenodd">
        <g id="plus" transform="translate(23.000000, 21.000000)" stroke="#FF3366" stroke-linecap="round" stroke-width="3">
            <path d="M0.5,3.25 L6.5,3.25" id="line"></path>
            <path d="M3.5,0.5 L3.5,6.5" id="line"></path>
        </g>
        <g id="Group" transform="translate(3.000000, 3.000000)" fill="#002857" fill-rule="nonzero">
            <path d="M20.25625,3.259375 C19.796875,3.15 19.3375,3.4125 19.228125,3.871875 L17.36875,11.15625 L7.04375,11.15625 L4.50625,0.83125 C4.41875,0.459375 4.06875,0.196875 3.696875,0.196875 L0.940625,0.196875 C0.48125,0.196875 0.109375,0.56875 0.109375,1.028125 C0.109375,1.4875 0.48125,1.859375 0.940625,1.859375 L3.01875,1.859375 L6.453125,15.859375 C6.540625,16.23125 6.890625,16.49375 7.2625,16.49375 L16.66875,16.49375 C17.128125,16.49375 17.5,16.121875 17.5,15.6625 C17.5,15.203125 17.128125,14.83125 16.66875,14.83125 L7.91875,14.83125 L7.4375,12.8625 L18.003125,12.8625 C18.396875,12.8625 18.725,12.6 18.8125,12.228125 L20.825,4.309375 C20.978125,3.85 20.715625,3.390625 20.25625,3.259375 Z" id="Shape"></path>
            <circle id="Oval" cx="8.88125" cy="18.571875" r="1.35625"></circle>
            <circle id="Oval" cx="15.4875" cy="18.571875" r="1.35625"></circle>
            <path d="M12.228125,9.40625 C14.678125,9.40625 16.66875,7.415625 16.66875,4.965625 C16.66875,2.515625 14.678125,0.525 12.228125,0.525 C9.778125,0.525 7.7875,2.515625 7.7875,4.965625 C7.7875,7.415625 9.778125,9.40625 12.228125,9.40625 Z M10.215625,4.41875 C10.5,4.178125 10.915625,4.221875 11.134375,4.50625 L11.790625,5.29375 L13.3,3.5 C13.540625,3.215625 13.95625,3.19375 14.21875,3.4125 C14.503125,3.653125 14.525,4.06875 14.30625,4.33125 L12.29375,6.7375 C12.1625,6.890625 11.9875,6.978125 11.790625,6.978125 C11.59375,6.978125 11.41875,6.890625 11.2875,6.7375 L10.128125,5.359375 C9.909375,5.075 9.93125,4.659375 10.215625,4.41875 Z" id="Shape"></path>
        </g>
    </g>
</svg>