<?xml version="1.0" encoding="UTF-8"?>
<svg width="32px" height="32px" viewBox="0 0 32 32" version="1.1" xmlns="http://www.w3.org/2000/svg" xmlns:xlink="http://www.w3.org/1999/xlink">
    <!-- Generator: Sketch 51.1 (57501) - http://www.bohemiancoding.com/sketch -->
    <title>Nueva Zona</title>
    <desc>Created with Sketch.</desc>
    <defs></defs>
    <g id="Nueva-Zona" stroke="none" stroke-width="1" fill="none" fill-rule="evenodd">
        <g id="ZONA" transform="translate(5.000000, 1.000000)" fill="#002857" fill-rule="nonzero">
            <path d="M12.0940956,0.447798546 C12.5651318,0.163343703 13.1152532,0 13.7029093,0 C13.7126992,0 13.7224786,4.5332727e-05 13.7322475,0.000135802922 C13.7423534,4.53305868e-05 13.7524699,0 13.7625968,0 C15.6269831,0 17.1385821,1.5364152 17.1380968,3.43091625 C17.1380968,5.32541729 15.6264978,6.86183249 13.7625968,6.86183249 C11.8986958,6.86183249 10.3870968,5.32591053 10.3870968,3.43091625 C10.3870968,2.15313634 11.0745126,1.03825212 12.0940956,0.447798545 Z" id="Combined-Shape-Copy-2"></path>
            <g id="Circulos" transform="translate(0.000000, 2.225806)">
                <g id="Circulos-Copy-6">
                    <g id="Group">
                        <path d="M4.90993678,11.6640085 C7.05134847,11.6640085 8.79369074,13.4349552 8.79369074,15.6115228 C8.79369074,17.7880905 7.05200054,19.5596999 4.90993678,19.5596999 C2.76787302,19.5596999 1.02618282,17.7887532 1.02618282,15.6121856 C1.02618282,13.435618 2.7685251,11.6640085 4.90993678,11.6640085 Z M4.90993678,11.0012291 C2.40466769,11.0012291 0.374108619,13.065787 0.374108619,15.6115228 C0.374108619,18.1579214 2.40531976,20.2218165 4.90993678,20.2218165 C7.41520587,20.2218165 9.44576495,18.1572586 9.44576495,15.6115228 C9.44641702,13.065787 7.41520587,11.0012291 4.90993678,11.0012291 Z" id="Shape"></path>
                        <path d="M4.89493908,0.662779429 C7.03635076,0.662779429 8.77869304,2.43372606 8.77869304,4.61029371 C8.77869304,6.78686135 7.03635076,8.55780798 4.89493908,8.55780798 C2.75352739,8.55780798 1.01118512,6.78686135 1.01118512,4.61029371 C1.01118512,2.43372606 2.75352739,0.662779429 4.89493908,0.662779429 Z M4.89493908,0 C2.38966998,0 0.359110912,2.06455792 0.359110912,4.61029371 C0.359110912,7.15669227 2.39032206,9.22058741 4.89493908,9.22058741 C7.39955609,9.22058741 9.43076724,7.15602949 9.43076724,4.61029371 C9.43141931,2.06455792 7.40020817,0 4.89493908,0 Z" id="Shape"></path>
                    </g>
                </g>
            </g>
            <g id="Circulos-Copy-5" transform="translate(9.645161, 8.903226)">
                <g id="Circulos-Copy-2">
                    <path d="M3.71033255,0.536142317 C5.30394125,0.536142317 6.60056806,1.85405609 6.60056806,3.47382736 C6.60056806,5.09359863 5.30442651,6.41200563 3.71033255,6.41200563 C2.11623859,6.41200563 0.820097046,5.09409186 0.820097046,3.47432059 C0.820097046,1.85454932 2.11672385,0.536142317 3.71033255,0.536142317 Z M3.71033255,0.0429111146 C1.84594625,0.0429111146 0.334832522,1.57932631 0.334832522,3.47382736 C0.334832522,5.36882164 1.84643151,6.90474361 3.71033255,6.90474361 C5.57471885,6.90474361 7.08583258,5.36832841 7.08583258,3.47382736 C7.08631784,1.57932631 5.57471885,0.0429111146 3.71033255,0.0429111146 Z" id="Shape"></path>
                </g>
            </g>
        </g>
        <g id="plus" transform="translate(23.000000, 21.000000)" stroke="#FF3366" stroke-linecap="round" stroke-width="3">
            <path d="M0.5,3.25 L6.5,3.25" id="line"></path>
            <path d="M3.5,0.5 L3.5,6.5" id="line"></path>
        </g>
    </g>
</svg>