<?xml version="1.0" encoding="UTF-8"?>
<svg width="32px" height="32px" viewBox="0 0 32 32" version="1.1" xmlns="http://www.w3.org/2000/svg" xmlns:xlink="http://www.w3.org/1999/xlink">
    <!-- Generator: Sketch 51.1 (57501) - http://www.bohemiancoding.com/sketch -->
    <title>Nuevo Accesorio</title>
    <desc>Created with Sketch.</desc>
    <defs></defs>
    <g id="Nuevo-Accesorio" stroke="none" stroke-width="1" fill="none" fill-rule="evenodd">
        <path d="M16.008365,2 L16.008365,2.00228146 C12.1444534,2.00228146 9.00003551,5.14430305 9,9.00836495 C9.00184554,10.4920356 9.96885576,11.9300796 10.8501901,13.342966 C11.6623374,14.6448294 12.3931237,15.9186406 12.5041825,16.8471485 L12.5041825,17.1847905 L12.5269961,17.1847905 L12.5269961,19.5186309 C12.5269961,21.4376381 14.0893602,23 16.008365,23 C17.9273697,23 19.489734,21.4376381 19.489734,19.5186309 L19.489734,17.1847905 L19.5125474,17.1847905 L19.5125474,16.8562734 C19.6238508,15.9262307 20.3562401,14.6508986 21.1688215,13.3475285 C22.0506268,11.9330068 23.0169845,10.4916233 23.0167299,9.00608361 C23.0166949,5.1420216 19.8722763,2 16.008365,2 Z M16.008365,3.12015211 L16.008365,3.12243357 C19.265749,3.12243357 21.8942667,5.75087692 21.8942959,9.00836495 C21.8944594,9.9502892 21.0970056,11.3376859 20.2152084,12.7520908 C19.5474666,13.8231535 18.8330257,14.9078849 18.5247149,16.0167297 L13.4942965,16.0167297 C13.1872783,14.9059342 12.4707791,13.8204272 11.8015209,12.7475283 C10.9201106,11.3345251 10.1236026,9.94648938 10.1224334,9.00608361 C10.1224634,5.74859558 12.7509804,3.12015211 16.008365,3.12015211 Z M13.6494293,17.1847905 L18.3673005,17.1847905 L18.3673,19.5186309 C18.3673,19.5194065 18.3673012,19.5201366 18.3673005,19.5209121 L13.6494293,19.5209121 C13.6494289,19.5201366 13.6494297,19.5194065 13.6494297,19.5186309 L13.6494293,17.1847905 Z M13.9642585,20.688973 L18.0524714,20.688973 C17.649182,21.4003804 16.8950434,21.8798472 16.008365,21.8798472 C15.1216865,21.8798472 14.3675479,21.4003804 13.9642585,20.688973 Z" id="Shape" fill="#002857" fill-rule="nonzero"></path>
        <g id="plus" transform="translate(23.000000, 21.000000)" stroke="#FF3366" stroke-linecap="round" stroke-width="3">
            <path d="M0.5,3.25 L6.5,3.25" id="line"></path>
            <path d="M3.5,0.5 L3.5,6.5" id="line"></path>
        </g>
    </g>
</svg>