<?xml version="1.0" encoding="UTF-8"?>
<svg width="32px" height="32px" viewBox="0 0 32 32" version="1.1" xmlns="http://www.w3.org/2000/svg" xmlns:xlink="http://www.w3.org/1999/xlink">
    <!-- Generator: Sketch 51.1 (57501) - http://www.bohemiancoding.com/sketch -->
    <title>Nuevo RTC</title>
    <desc>Created with Sketch.</desc>
    <defs></defs>
    <g id="Nuevo-RTC" stroke="none" stroke-width="1" fill="none" fill-rule="evenodd">
        <g id="Group" transform="translate(2.000000, 2.000000)" fill="#002857" fill-rule="nonzero">
            <path d="M10.5,21 C4.70863309,21 0,16.2913669 0,10.5 C0,4.70863309 4.70863309,0 10.5,0 C16.2913669,0 21,4.70863309 21,10.5 C21,16.2913669 16.2913669,21 10.5,21 Z M10.5,1.67194245 C5.63021583,1.67194245 1.67194245,5.6352518 1.67194245,10.5 C1.67194245,15.3647482 5.63021583,19.3280576 10.5,19.3280576 C15.3697842,19.3280576 19.3280576,15.3697842 19.3280576,10.5 C19.3280576,5.63021583 15.3697842,1.67194245 10.5,1.67194245 Z" id="Shape"></path>
            <path d="M7.88968195,15 C7.64789854,15 7.40074216,14.913767 7.22880729,14.7503782 C6.90105643,14.4417549 6.92792126,13.9652042 7.29328286,13.688351 L10.2161757,11.4689864 L10.2161757,6.75340393 C10.2161757,6.33585477 10.6137751,6 11.1080878,6 C11.6024006,6 12,6.33585477 12,6.75340393 L12,12.1361573 L8.48608104,14.8048411 C8.31414617,14.9364599 8.09922758,15 7.88968195,15 Z" id="Shape"></path>
        </g>
        <g id="plus" transform="translate(23.000000, 21.000000)" stroke="#FF3366" stroke-linecap="round" stroke-width="3">
            <path d="M0.5,3.25 L6.5,3.25" id="line"></path>
            <path d="M3.5,0.5 L3.5,6.5" id="line"></path>
        </g>
    </g>
</svg>