<?xml version="1.0" encoding="UTF-8"?>
<svg width="55px" height="55px" viewBox="0 0 55 55" version="1.1" xmlns="http://www.w3.org/2000/svg" xmlns:xlink="http://www.w3.org/1999/xlink">
    <!-- Generator: Sketch 51.1 (57501) - http://www.bohemiancoding.com/sketch -->
    <title>OFF</title>
    <desc>Created with Sketch.</desc>
    <defs>
        <path d="M27.5,49 C15.6258779,49 6,39.3741221 6,27.5 C6,15.6258779 15.6258779,6 27.5,6 C39.3741221,6 49,15.6258779 49,27.5 C49,39.3741221 39.3741221,49 27.5,49 Z M24.4121094,28.5576172 C24.4121094,26.3896376 23.8847709,24.7460993 22.8300781,23.6269531 C21.7753854,22.5078069 20.2255962,21.9482422 18.1806641,21.9482422 C16.1415914,21.9482422 14.5874077,22.5122014 13.5180664,23.6401367 C12.4487251,24.768072 11.9140625,26.4013565 11.9140625,28.5400391 C11.9140625,30.7021592 12.4516548,32.3486272 13.5268555,33.4794922 C14.6020562,34.6103572 16.1474509,35.1757812 18.1630859,35.1757812 C20.208018,35.1757812 21.7607369,34.6132869 22.8212891,33.4882812 C23.8818412,32.3632756 24.4121094,30.7197374 24.4121094,28.5576172 Z M15.5703125,28.5576172 C15.5703125,26.0497921 16.440421,24.7958984 18.1806641,24.7958984 C19.0361371,24.7958984 19.6791971,25.1020477 20.1098633,25.7143555 C20.5405295,26.3266632 20.7558594,27.2744076 20.7558594,28.5576172 C20.7558594,29.8349673 20.5434592,30.7753876 20.1186523,31.3789062 C19.6938455,31.9824249 19.0419966,32.2841797 18.1630859,32.2841797 C16.4345617,32.2841797 15.5703125,31.0420046 15.5703125,28.5576172 Z M30.1513672,35 L30.1513672,30.1748047 L34.0009766,30.1748047 L34.0009766,27.3886719 L30.1513672,27.3886719 L30.1513672,24.9365234 L34.3261719,24.9365234 L34.3261719,22.1503906 L26.7324219,22.1503906 L26.7324219,35 L30.1513672,35 Z M39.8544922,35 L39.8544922,30.1748047 L43.7041016,30.1748047 L43.7041016,27.3886719 L39.8544922,27.3886719 L39.8544922,24.9365234 L44.0292969,24.9365234 L44.0292969,22.1503906 L36.4355469,22.1503906 L36.4355469,35 L39.8544922,35 Z" id="path-1"></path>
        <filter x="-12.8%" y="-12.8%" width="130.2%" height="130.2%" filterUnits="objectBoundingBox" id="filter-2">
            <feOffset dx="1" dy="1" in="SourceAlpha" result="shadowOffsetOuter1"></feOffset>
            <feGaussianBlur stdDeviation="2" in="shadowOffsetOuter1" result="shadowBlurOuter1"></feGaussianBlur>
            <feColorMatrix values="0 0 0 0 0   0 0 0 0 0   0 0 0 0 0  0 0 0 0.5 0" type="matrix" in="shadowBlurOuter1"></feColorMatrix>
        </filter>
    </defs>
    <g id="OFF" stroke="none" stroke-width="1" fill="none" fill-rule="evenodd">
        <g id="Combined-Shape" fill-rule="nonzero">
            <use fill="black" fill-opacity="1" filter="url(#filter-2)" xlink:href="#path-1"></use>
            <use fill="#E7CEA0" xlink:href="#path-1"></use>
        </g>
    </g>
</svg>