<?xml version="1.0" encoding="UTF-8"?>
<svg width="55px" height="55px" viewBox="0 0 55 55" version="1.1" xmlns="http://www.w3.org/2000/svg" xmlns:xlink="http://www.w3.org/1999/xlink">
    <!-- Generator: Sketch 51.1 (57501) - http://www.bohemiancoding.com/sketch -->
    <title>ON</title>
    <desc>Created with Sketch.</desc>
    <defs>
        <path d="M27.5,49 C15.6258779,49 6,39.3741221 6,27.5 C6,15.6258779 15.6258779,6 27.5,6 C39.3741221,6 49,15.6258779 49,27.5 C49,39.3741221 39.3741221,49 27.5,49 Z M26.4121094,28.5576172 C26.4121094,26.3896376 25.8847709,24.7460993 24.8300781,23.6269531 C23.7753854,22.5078069 22.2255962,21.9482422 20.1806641,21.9482422 C18.1415914,21.9482422 16.5874077,22.5122014 15.5180664,23.6401367 C14.4487251,24.768072 13.9140625,26.4013565 13.9140625,28.5400391 C13.9140625,30.7021592 14.4516548,32.3486272 15.5268555,33.4794922 C16.6020562,34.6103572 18.1474509,35.1757812 20.1630859,35.1757812 C22.208018,35.1757812 23.7607369,34.6132869 24.8212891,33.4882812 C25.8818412,32.3632756 26.4121094,30.7197374 26.4121094,28.5576172 Z M17.5703125,28.5576172 C17.5703125,26.0497921 18.440421,24.7958984 20.1806641,24.7958984 C21.0361371,24.7958984 21.6791971,25.1020477 22.1098633,25.7143555 C22.5405295,26.3266632 22.7558594,27.2744076 22.7558594,28.5576172 C22.7558594,29.8349673 22.5434592,30.7753876 22.1186523,31.3789062 C21.6938455,31.9824249 21.0419966,32.2841797 20.1630859,32.2841797 C18.4345617,32.2841797 17.5703125,31.0420046 17.5703125,28.5576172 Z M40.9667969,35 L40.9667969,22.1503906 L37.8730469,22.1503906 L37.8730469,27.9599609 C37.8730469,28.7451211 37.9140621,29.7851498 37.9960938,31.0800781 L37.9433594,31.0800781 L33.2675781,22.1503906 L28.7324219,22.1503906 L28.7324219,35 L31.8085938,35 L31.8085938,29.2080078 C31.8085938,28.4580041 31.7529302,27.3711009 31.6416016,25.9472656 L31.7207031,25.9472656 L36.4140625,35 L40.9667969,35 Z" id="path-1"></path>
        <filter x="-12.8%" y="-12.8%" width="130.2%" height="130.2%" filterUnits="objectBoundingBox" id="filter-2">
            <feOffset dx="1" dy="1" in="SourceAlpha" result="shadowOffsetOuter1"></feOffset>
            <feGaussianBlur stdDeviation="2" in="shadowOffsetOuter1" result="shadowBlurOuter1"></feGaussianBlur>
            <feColorMatrix values="0 0 0 0 0   0 0 0 0 0   0 0 0 0 0  0 0 0 0.5 0" type="matrix" in="shadowBlurOuter1"></feColorMatrix>
        </filter>
    </defs>
    <g id="ON" stroke="none" stroke-width="1" fill="none" fill-rule="evenodd">
        <g id="Combined-Shape" fill-rule="nonzero">
            <use fill="black" fill-opacity="1" filter="url(#filter-2)" xlink:href="#path-1"></use>
            <use fill="#E7CEA0" xlink:href="#path-1"></use>
        </g>
    </g>
</svg>