<?xml version="1.0" encoding="UTF-8"?>
<svg width="55px" height="55px" viewBox="0 0 55 55" version="1.1" xmlns="http://www.w3.org/2000/svg" xmlns:xlink="http://www.w3.org/1999/xlink">
    <!-- Generator: Sketch 51.1 (57501) - http://www.bohemiancoding.com/sketch -->
    <title>Stop</title>
    <desc>Created with Sketch.</desc>
    <defs>
        <path d="M27.5,49 C15.6258779,49 6,39.3741221 6,27.5 C6,15.6258779 15.6258779,6 27.5,6 C39.3741221,6 49,15.6258779 49,27.5 C49,39.3741221 39.3741221,49 27.5,49 Z M41.4112245,25.8367347 C41.1913265,25.4683673 40.8219388,25.2653061 40.3637755,25.2653061 C39.5132653,25.2683673 38.4897959,25.6056122 37.6928571,26.144898 C36.9576531,26.6423469 35.8918367,27.5642857 34.9923469,29.1362245 C34.8234694,29.4311224 34.5464286,29.6311224 34.25,29.6785714 C34.2489796,29.6102041 34.2494898,29.5321429 34.2494898,29.4586735 C34.2494898,29.3005102 34.25,29.1127551 34.2433673,28.9056122 L34.2433673,17.6122449 C34.2433673,16.4867347 33.3280612,15.5714286 32.202551,15.5714286 C31.0770408,15.5714286 30.1617347,16.4867347 30.1617347,17.6122449 L30.1617347,25.5204082 C30.1617347,25.6607143 30.0469388,25.7755102 29.9066327,25.7755102 C29.7663265,25.7755102 29.6515306,25.6607143 29.6515306,25.5204082 L29.6515306,14.0408163 C29.6515306,12.9153061 28.7362245,12 27.6107143,12 C26.4852041,12 25.569898,12.9153061 25.569898,14.0408163 L25.569898,25.5204082 C25.569898,25.6607143 25.455102,25.7755102 25.3147959,25.7755102 C25.1744898,25.7755102 25.0596939,25.6607143 25.0596939,25.5204082 L25.0596939,16.3367347 C25.0596939,15.3520408 24.2586735,14.5510204 23.2739796,14.5510204 C22.2892857,14.5510204 21.4882653,15.3520408 21.4882653,16.3367347 L21.4882653,26.5408163 C21.4882653,26.6811224 21.3734694,26.7959184 21.2331633,26.7959184 C21.0928571,26.7959184 20.9780612,26.6811224 20.9780612,26.5408163 L20.9780612,20.1632653 C20.9780612,19.1785714 20.1770408,18.377551 19.1872449,18.377551 C18.202551,18.377551 17.4015306,19.1785714 17.4015306,20.1632653 L17.402551,34.0392857 C17.8964286,41.1734694 22.272449,42.1357143 26.4882653,42.1357143 C29.9811224,42.1357143 33.1183673,40.4030612 34.6653061,37.6336735 C34.8642857,37.3122449 35.402551,36.4663265 36.0408163,35.4632653 C37.6367347,32.9566327 38.9734694,30.8505102 39.1709184,30.4760204 C39.6112245,29.6423469 40.102551,28.9908163 40.5913265,28.5918367 C41.0336735,28.2306122 41.3040816,27.769898 41.5239796,27.3653061 C41.6372449,27.155102 41.7362245,26.3821429 41.4112245,25.8367347 Z" id="path-1"></path>
        <filter x="-12.8%" y="-12.8%" width="130.2%" height="130.2%" filterUnits="objectBoundingBox" id="filter-2">
            <feOffset dx="1" dy="1" in="SourceAlpha" result="shadowOffsetOuter1"></feOffset>
            <feGaussianBlur stdDeviation="2" in="shadowOffsetOuter1" result="shadowBlurOuter1"></feGaussianBlur>
            <feColorMatrix values="0 0 0 0 0   0 0 0 0 0   0 0 0 0 0  0 0 0 0.5 0" type="matrix" in="shadowBlurOuter1"></feColorMatrix>
        </filter>
    </defs>
    <g id="Stop" stroke="none" stroke-width="1" fill="none" fill-rule="evenodd">
        <g id="Combined-Shape">
            <use fill="black" fill-opacity="1" filter="url(#filter-2)" xlink:href="#path-1"></use>
            <use fill="#E7CEA0" fill-rule="evenodd" xlink:href="#path-1"></use>
        </g>
    </g>
</svg>