<?xml version="1.0" encoding="UTF-8"?>
<svg width="30px" height="30px" viewBox="0 0 30 30" version="1.1" xmlns="http://www.w3.org/2000/svg" xmlns:xlink="http://www.w3.org/1999/xlink">
    <!-- Generator: Sketch 51.1 (57501) - http://www.bohemiancoding.com/sketch -->
    <title>Ver</title>
    <desc>Created with Sketch.</desc>
    <defs></defs>
    <g id="Ver" stroke="none" stroke-width="1" fill="none" fill-rule="evenodd">
        <g id="noun_see_588449" transform="translate(3.000000, 7.000000)" fill="#002857" fill-rule="nonzero">
            <g id="Group" transform="translate(0.095238, 0.000000)">
                <path d="M12.0952381,0.00952380952 C5.53333333,0.00952380952 0,5.20952381 0,8.47619048 C0,11.7428571 5.53333333,16.9428571 12.0952381,16.9428571 C18.6571429,16.9428571 24.1904762,11.7428571 24.1904762,8.47619048 C24.1904762,5.20952381 18.6571429,0.00952380952 12.0952381,0.00952380952 Z M12.0952381,14.5238095 C6.43333333,14.5238095 2.41904762,9.93809524 2.41904762,8.47619048 C2.41904762,7.01428571 6.43333333,2.42857143 12.0952381,2.42857143 C17.4809524,2.42857143 21.7714286,6.77142857 21.7714286,8.47619048 C21.7714286,9.93809524 17.7571429,14.5238095 12.0952381,14.5238095 Z" id="Shape"></path>
                <path d="M12.0952381,4.84761905 C10.0904762,4.84761905 8.46666667,6.47142857 8.46666667,8.47619048 C8.46666667,10.4809524 10.0904762,12.1047619 12.0952381,12.1047619 C14.1,12.1047619 15.7238095,10.4809524 15.7238095,8.47619048 C15.7238095,6.47142857 14.1,4.84761905 12.0952381,4.84761905 Z" id="Shape"></path>
            </g>
        </g>
    </g>
</svg>